/* XPM */
static char *result[] = {
/* columns rows colors chars-per-pixel */
"16 16 56 1 ",
"  c #141A1A",
". c #151A1A",
"X c #141B1A",
"o c #151B1A",
"O c #141A1B",
"+ c #151A1B",
"@ c #141B1B",
"# c #151B1B",
"$ c #3A3642",
"% c #3B3642",
"& c #3A3742",
"* c #3B3742",
"= c #3A3643",
"- c #3B3643",
"; c #3A3743",
": c #3B3743",
"> c #4E484A",
", c #4F484A",
"< c #4E494A",
"1 c #4F494A",
"2 c #4E484B",
"3 c #4F484B",
"4 c #4E494B",
"5 c #4F494B",
"6 c #E0384C",
"7 c #E0394C",
"8 c #E1394C",
"9 c #965240",
"0 c #965241",
"q c #975241",
"w c #965341",
"e c #A3744E",
"r c #A2754E",
"t c #A3754E",
"y c #A2744F",
"u c #A3744F",
"i c #A2754F",
"p c #A3754F",
"a c #8D967E",
"s c #8D977E",
"d c #8D967F",
"f c #8C977F",
"g c #D68A4A",
"h c #D78A4A",
"j c #D78B4A",
"k c #D68A4B",
"l c #F0C470",
"z c #F1C470",
"x c #F1C570",
"c c #F0C471",
"v c #F1C571",
"b c #AAC2BC",
"n c #ABC2BC",
"m c #AAC3BC",
"M c #ABC2BD",
"N c None",
/* pixels */
"NNNNNNNO+oNNNNNN",
"NNNNO.#687+XNNNN",
"NNN ,>4,3,4,XNNN",
"NN@4132213><<#NN",
"NX113><541>212@N",
"N@:3=<:>2$>;>:@N",
"N#*;=-$$2->-<$ N",
"NX%*-:-=r=:=%+XN",
"No:=:;*-uX@ti@NN",
"@:%::-:*pyOpet+N",
"+;=-;%=;erpiwq+N",
"O$=%:-$ierurt@NN",
" &:-X090w#@o#NNN",
"@%-@jjzzkhnmONNN",
"N@Ovx@vzXjgMm#NN",
"NN.bfXlc@sdab#NN"
};
