/* XPM */
static char *result[] = {
/* columns rows colors chars-per-pixel */
"16 16 45 1 ",
"  c #141A1A",
". c #151A1A",
"X c #141B1A",
"o c #151B1A",
"O c #141A1B",
"+ c #151A1B",
"@ c #141B1B",
"# c #151B1B",
"$ c #3A3642",
"% c #3B3642",
"& c #3A3742",
"* c #3B3742",
"= c #3A3643",
"- c #3B3643",
"; c #3A3743",
": c #3B3743",
"> c #4E484A",
", c #4F484A",
"< c #4E494A",
"1 c #4F494A",
"2 c #4E484B",
"3 c #4F484B",
"4 c #4E494B",
"5 c #4F494B",
"6 c #E0384D",
"7 c #E1384D",
"8 c #E0394D",
"9 c #8D967E",
"0 c #8C977E",
"q c #8D977E",
"w c #8C977F",
"e c #8D977F",
"r c #D68A4A",
"t c #D78A4A",
"y c #D78B4A",
"u c #D78A4B",
"i c #D68B4B",
"p c #D78B4B",
"a c #F0C470",
"s c #F1C470",
"d c #F1C570",
"f c #F0C471",
"g c #F1C471",
"h c #ABC2BD",
"j c None",
/* pixels */
"jj@o@Oo#O.@@jjjj",
"jX7687><<>1,Ojjj",
"jj@22,<2522,3Xjj",
"jo444,,>23<>,3Oj",
"jO42-,;>1$>%>2Xj",
"j@,-*4;33*5:*<oj",
"j@,-%$%;*%::->@j",
"jO3%--;-$=:--,+j",
"j@>:;%:%$-==:,#j",
"jO,=:;%:%:==*Ojj",
"#rO:=&-=-=:-=;#j",
"#ut-=---;-:::-@j",
"jogs-%%=--&=;XXj",
"jj@ayy--%*-=gdXj",
"jj+hiyuipiytffXj",
"jjj#qqe09wqq .jj"
};
