/* XPM */
static char *result[] = {
/* columns rows colors chars-per-pixel */
"16 16 41 1 ",
"  c #141A1A",
". c #141B1A",
"X c #151B1A",
"o c #141A1B",
"O c #141B1B",
"+ c #151B1B",
"@ c #3A3642",
"# c #3B3642",
"$ c #3A3742",
"% c #3B3742",
"& c #3A3643",
"* c #3B3643",
"= c #3A3743",
"- c #3B3743",
"; c #4E484A",
": c #4F484A",
"> c #4E494A",
", c #4F494A",
"< c #4E484B",
"1 c #4F484B",
"2 c #4E494B",
"3 c #4F494B",
"4 c #E0384C",
"5 c #E1384C",
"6 c #E0394D",
"7 c #8C967E",
"8 c #8C977E",
"9 c #8D977E",
"0 c #8D967F",
"q c #8D977F",
"w c #D68A4A",
"e c #D78A4A",
"r c #D68B4A",
"t c #D78B4A",
"y c #D78A4B",
"u c #D78B4B",
"i c #F1C470",
"p c #F1C570",
"a c #AAC2BC",
"s c #ABC2BC",
"d c None",
/* pixels */
"ddd.Oodddddddddd",
"dd.466.O.oOOdddd",
"do5;2;:;,>1;+ddd",
"ddO:2::2<;:;<.dd",
"dO<;<>;<;31:,1Xd",
"dO,>#:-<;*:&>3Od",
"do;#*:$21@<=*:+d",
"d <=$#=--%&**:+d",
"dO,-**-#=&&=@:Od",
"dO2%@&***=-=&>Xd",
"ddO#-&=--*&@*Xdd",
"d.-@@@#&-$=#@*+d",
"dO-**#&$&-**=#Xd",
"d  =&*=@-#&-#oOd",
"Otwpt&--$=@tieu ",
"owya7709q808swro"
};
