/* XPM */
static char *result[] = {
/* columns rows colors chars-per-pixel */
"16 16 58 1 ",
"  c #141A1A",
". c #151A1A",
"X c #141B1A",
"o c #151B1A",
"O c #141A1B",
"+ c #151A1B",
"@ c #141B1B",
"# c #151B1B",
"$ c #3A3642",
"% c #3B3642",
"& c #3A3742",
"* c #3B3742",
"= c #3A3643",
"- c #3B3643",
"; c #3A3743",
": c #3B3743",
"> c #4E484A",
", c #4F484A",
"< c #4E494A",
"1 c #4F494A",
"2 c #4E484B",
"3 c #4F484B",
"4 c #4E494B",
"5 c #4F494B",
"6 c #E0384C",
"7 c #E0394C",
"8 c #E0394D",
"9 c #965240",
"0 c #975240",
"q c #965340",
"w c #975340",
"e c #A2744E",
"r c #A3744E",
"t c #A2754E",
"y c #A3754E",
"u c #A3744F",
"i c #8D967E",
"p c #8D977E",
"a c #8C977F",
"s c #8D977F",
"d c #D68A4A",
"f c #D68B4A",
"g c #D78A4B",
"h c #D68B4B",
"j c #D78B4B",
"k c #F0C470",
"l c #F1C470",
"z c #F1C570",
"x c #F0C471",
"c c #F1C471",
"v c #F0C571",
"b c #F1C571",
"n c #AAC2BC",
"m c #AAC3BC",
"M c #ABC3BC",
"N c #AAC2BD",
"B c #AAC3BD",
"V c None",
/* pixels */
"VVVVVVo#oVVVVVVV",
"VVVVO.668# OVVVV",
"VVVO16zbv7<5+VVV",
"VV+2>>8773312#VV",
"Vo14>>32>21<>>@V",
"V :>:,;>2:,->%XV",
"V@-,%,*2=%;--%@V",
"V@X&:%%r---$:-#V",
"VV+ttO e---;&*oV",
"V#yyuout;:-:-=#V",
"VX0qruyr*&-%%:%@",
"VVOeryrt=-&:-;=.",
"VVV.O@@9w:$-%-*O",
"VVV+BNjgxbdf@%= ",
"VVOMnhd@clOkc#@V",
"VV@niasObb.pmoVV"
};
