/* XPM */
static char *result[] = {
/* columns rows colors chars-per-pixel */
"16 16 53 1 ",
"  c #141A1A",
". c #151A1A",
"X c #141B1A",
"o c #151B1A",
"O c #141A1B",
"+ c #151A1B",
"@ c #141B1B",
"# c #151B1B",
"$ c #3A3642",
"% c #3B3642",
"& c #3B3742",
"* c #3A3643",
"= c #3B3643",
"- c #3A3743",
"; c #3B3743",
": c #4E484A",
"> c #4F484A",
", c #4E494A",
"< c #4F494A",
"1 c #4E484B",
"2 c #4F484B",
"3 c #4E494B",
"4 c #4F494B",
"5 c #E0394C",
"6 c #E0394D",
"7 c #965240",
"8 c #975240",
"9 c #975341",
"0 c #A2744E",
"q c #A3744E",
"w c #A2754E",
"e c #A3754E",
"r c #A2744F",
"t c #A3744F",
"y c #A2754F",
"u c #A3754F",
"i c #8C967E",
"p c #8D977E",
"a c #8D977F",
"s c #D78A4A",
"d c #D78B4A",
"f c #D68B4B",
"g c #D78B4B",
"h c #F1C470",
"j c #F1C471",
"k c #F0C571",
"l c #F1C571",
"z c #AAC2BC",
"x c #ABC2BC",
"c c #ABC3BC",
"v c #AAC3BD",
"b c #ABC3BD",
"n c None",
/* pixels */
"nnnnnnno#Xnnnnnn",
"nnnn##O566 @nnnn",
"nnn 2>:1:>,>Onnn",
"nn@:,23::>4,>onn",
"n :2,1<1<,::2,on",
"n =:;,=:2;:=4;+n",
"n#;%%==;,=3;<=@n",
"n#==--%=e;%=*@@n",
"n *$;-=;w@Xqe nn",
"n#;;;=&=wtOery+n",
" ;=-*;$=uuwu97+n",
"O=%==&-=0tteu@nn",
"O-;=;=;87OX@@nnn",
"X%=osfhkdgczXnnn",
"nX.khOhl#gsxb nn",
"nn vpOhj+aipconn"
};
