/* XPM */
static char *result[] = {
/* columns rows colors chars-per-pixel */
"16 16 57 1 ",
"  c #141A1A",
". c #151A1A",
"X c #141B1A",
"o c #151B1A",
"O c #141A1B",
"+ c #151A1B",
"@ c #141B1B",
"# c #151B1B",
"$ c #3B3642",
"% c #3A3742",
"& c #3B3742",
"* c #3A3643",
"= c #3B3643",
"- c #3A3743",
"; c #3B3743",
": c #4E484A",
"> c #4F484A",
", c #4E494A",
"< c #4F494A",
"1 c #4E484B",
"2 c #4F484B",
"3 c #4E494B",
"4 c #4F494B",
"5 c #E0384C",
"6 c #E0394C",
"7 c #E1394C",
"8 c #E0384D",
"9 c #E0394D",
"0 c #975240",
"q c #965340",
"w c #975340",
"e c #965341",
"r c #975341",
"t c #A2744E",
"y c #A3744E",
"u c #A3754E",
"i c #A2744F",
"p c #A3744F",
"a c #A2754F",
"s c #A3754F",
"d c #8C967E",
"f c #8D977E",
"g c #8C967F",
"h c #8D977F",
"j c #D68A4A",
"k c #D78A4A",
"l c #D78B4A",
"z c #D68A4B",
"x c #D78A4B",
"c c #D68B4B",
"v c #F1C471",
"b c #F0C571",
"n c #F1C571",
"m c #AAC3BC",
"M c #ABC2BD",
"N c #ABC3BD",
"B c None",
/* pixels */
"BBBBBBBBBBBBBBBB",
"BBBBBBoO+BBBBBBB",
"BBBB+X798# @BBBB",
"BBB@>5vnb7,,#BBB",
"BB >:>6753<3>@BB",
"BO,2,114::::>>.B",
"BO;>=<$::&:&2= B",
"B#*:$:=>&=$===+B",
"B@.$*==u=;*-=*XB",
"BB#ut+#a-&=;&-XB",
"B#typ+up*$*;$=$o",
"B+0qsuuy*-;$$$$O",
"BB#iysttu$*O@*%X",
"BBBO#.Xewr#lzO;+",
"BB@NMcjjlxokco#B",
"BB#mhgffdhhX+BBB"
};
