/* XPM */
static char *result[] = {
/* columns rows colors chars-per-pixel */
"16 16 57 1 ",
"  c #141A1A",
". c #151A1A",
"X c #141B1A",
"o c #151B1A",
"O c #141A1B",
"+ c #151A1B",
"@ c #141B1B",
"# c #151B1B",
"$ c #3B3642",
"% c #3A3742",
"& c #3B3742",
"* c #3A3643",
"= c #3B3643",
"- c #3A3743",
"; c #3B3743",
": c #4E484A",
"> c #4F484A",
", c #4E494A",
"< c #4F494A",
"1 c #4E484B",
"2 c #4F484B",
"3 c #4F494B",
"4 c #E0394C",
"5 c #E1394C",
"6 c #E0384D",
"7 c #E0394D",
"8 c #E1394D",
"9 c #965240",
"0 c #975240",
"q c #965340",
"w c #975340",
"e c #965241",
"r c #975241",
"t c #965341",
"y c #975341",
"u c #A3744E",
"i c #A3754E",
"p c #A2744F",
"a c #A3744F",
"s c #A2754F",
"d c #A3754F",
"f c #8C977E",
"g c #8D977E",
"h c #8D967F",
"j c #8C977F",
"k c #D68A4A",
"l c #D78A4A",
"z c #D78B4A",
"x c #D78A4B",
"c c #D68B4B",
"v c #F1C470",
"b c #F0C570",
"n c #F1C570",
"m c #F1C471",
"M c #F1C571",
"N c #ABC2BD",
"B c None",
/* pixels */
"BBBBBBBBBBBBBBBB",
"BBBBBBBBBB##@BBB",
"BBBB+XOO@X447OBB",
"BBB@:1>124mvM5#B",
"BBo:122<,:864XBB",
"BX:1,<1>:::,:1oB",
"B@,,$1;:>*<$:<@B",
"B#>>%>%>,-2*13@B",
"B#,q-&;$;;=;q:oB",
"B+<e#XiidiX@0,@B",
".::qi.asiuXdt2:X",
" > yiisqtdppqO,.",
"O@l@9iissidw#X,#",
"BOXXzr0wtrczm@XB",
"BBB@nkgjxcMvv#BB",
"BBBBoNhfg@bM@BBB"
};
