/* XPM */
static char *result[] = {
/* columns rows colors chars-per-pixel */
"16 16 56 1 ",
"  c #141A1A",
". c #151A1A",
"X c #141B1A",
"o c #151B1A",
"O c #141A1B",
"+ c #151A1B",
"@ c #141B1B",
"# c #151B1B",
"$ c #3B3642",
"% c #3B3742",
"& c #3A3643",
"* c #3B3643",
"= c #3A3743",
"- c #3B3743",
"; c #4E484A",
": c #4F484A",
"> c #4E494A",
", c #4F494A",
"< c #4E484B",
"1 c #4F484B",
"2 c #4E494B",
"3 c #4F494B",
"4 c #E1384C",
"5 c #E0394C",
"6 c #E1394C",
"7 c #E0394D",
"8 c #965240",
"9 c #975240",
"0 c #965340",
"q c #965241",
"w c #965341",
"e c #975341",
"r c #A2744E",
"t c #A3744E",
"y c #A2754E",
"u c #A3754E",
"i c #A2754F",
"p c #A3754F",
"a c #8D967E",
"s c #8C977E",
"d c #8C967F",
"f c #8D967F",
"g c #8C977F",
"h c #8D977F",
"j c #D78A4A",
"k c #D78B4A",
"l c #D68B4B",
"z c #D78B4B",
"x c #F0C470",
"c c #F1C470",
"v c #F0C570",
"b c #F0C471",
"n c #F1C471",
"m c #F0C571",
"M c #F1C571",
"N c None",
/* pixels */
"NNNNNNNNNN ..NNN",
"NNNNX+OX@.455oNN",
"NNN@>;<;<4xcc6XN",
"NNo>3<<11;667XNN",
"NX,<::><>,;;2;#N",
"NX;:-2*;;&,$,:@N",
"N.;2*,$<;%,*<<@N",
"NO28*$*=&$$%8;oN",
"N@>8@.iupu@o0<@N",
"N@<wtXiuppOu9>@N",
".;38utuw9uit8<;O",
"@>;@wpurytpwX:>@",
"#;#xcwwewqwbnX>#",
"N+MvkkzgdjklcMoN",
"N bcczXO#XkMnm#N",
"NNXXhaso@fhh@ONN"
};
