/* XPM */
static char *result[] = {
/* columns rows colors chars-per-pixel */
"16 16 57 1 ",
"  c #141A1A",
". c #151A1A",
"X c #141B1A",
"o c #151B1A",
"O c #141A1B",
"+ c #151A1B",
"@ c #141B1B",
"# c #151B1B",
"$ c #3A3642",
"% c #3B3642",
"& c #3B3742",
"* c #3A3643",
"= c #3B3643",
"- c #3A3743",
"; c #3B3743",
": c #4E484A",
"> c #4F484A",
", c #4E494A",
"< c #4F494A",
"1 c #4E484B",
"2 c #4F484B",
"3 c #4E494B",
"4 c #4F494B",
"5 c #E0394C",
"6 c #E1394C",
"7 c #E0384D",
"8 c #E0394D",
"9 c #965240",
"0 c #975240",
"q c #965340",
"w c #965241",
"e c #A2744E",
"r c #A3744E",
"t c #A2754E",
"y c #A3754E",
"u c #A2744F",
"i c #A3744F",
"p c #A2754F",
"a c #A3754F",
"s c #8D967E",
"d c #8C967F",
"f c #8D967F",
"g c #D78B4A",
"h c #D68B4B",
"j c #D78B4B",
"k c #F0C470",
"l c #F1C470",
"z c #F1C570",
"x c #F1C471",
"c c #F0C571",
"v c #F1C571",
"b c #AAC2BC",
"n c #ABC2BC",
"m c #ABC3BC",
"M c #AAC2BD",
"N c #ABC2BD",
"B c None",
/* pixels */
"BBBBBB##@BBBBBBB",
"BBBBX 785# OBBBB",
"BBBO:5cvl5><XBBB",
"BB@14>567:1:>@BB",
"B@,>:,1:,31,:2#B",
"BX%:%2;2:%<;3;OB",
"B+*,=:*:&$&;;$XB",
"B.@**&$t%-;=;-+B",
"BB@pi#Xu*%%%=&OB",
"B@yerour%=*%==%O",
"Bo09year%==&*&=#",
"BB@arrtui=;%&%-@",
"BBB##o@9wq9O$%;O",
"BBB#nmjgllgg@$=+",
"BBObMhh@kvOzv #B",
"BB+ndff#xc#sNoBB"
};
