/* XPM */
static char *result[] = {
/* columns rows colors chars-per-pixel */
"16 16 51 1 ",
"  c #141A1A",
". c #151A1A",
"X c #141B1A",
"o c #151B1A",
"O c #141A1B",
"+ c #151A1B",
"@ c #141B1B",
"# c #151B1B",
"$ c #3A3642",
"% c #3B3642",
"& c #3A3742",
"* c #3B3742",
"= c #3A3643",
"- c #3B3643",
"; c #3A3743",
": c #3B3743",
"> c #4E484A",
", c #4F484A",
"< c #4E494A",
"1 c #4F494A",
"2 c #4E484B",
"3 c #4F484B",
"4 c #4E494B",
"5 c #4F494B",
"6 c #E0384C",
"7 c #E0394C",
"8 c #965240",
"9 c #965340",
"0 c #975340",
"q c #975341",
"w c #A2744E",
"e c #A3744E",
"r c #A2754E",
"t c #A3754E",
"y c #A3744F",
"u c #A2754F",
"i c #A3754F",
"p c #8C967E",
"a c #8C967F",
"s c #8D967F",
"d c #8C977F",
"f c #8D977F",
"g c #D78A4A",
"h c #D68B4A",
"j c #D78B4A",
"k c #D68A4B",
"l c #D78A4B",
"z c #AAC2BC",
"x c #ABC2BC",
"c c #AAC3BD",
"v c None",
/* pixels */
"vvvvvvvvvvvvvvvv",
"vvvvvvvo+.vvvvvv",
"vvvvO X766  vvvv",
"vvvo2>4,>5>5@vvv",
"vv#,,<1>><1,5Ovv",
"v@<322<,<<,,14@v",
"v+->=,-2<%2-<=@v",
"vX&-%=%:>:>-2-@v",
"vO:=:*::t$=-:o#v",
"v@*$%%%%iO@ey@vv",
"X$-$:-&-itotuy#v",
"o-:%%=*;rwti09 v",
"@-$.@--ruetre vv",
"#%#gj 88q@#@@vvv",
"v.Olj.gkljhzx@vv",
"vvvX@pafsfsdc.vv"
};
