/* XPM */
static char *result[] = {
/* columns rows colors chars-per-pixel */
"16 16 55 1 ",
"  c #141A1A",
". c #151A1A",
"X c #141B1A",
"o c #151B1A",
"O c #141A1B",
"+ c #151A1B",
"@ c #141B1B",
"# c #151B1B",
"$ c #3A3642",
"% c #3B3642",
"& c #3A3742",
"* c #3B3742",
"= c #3A3643",
"- c #3B3643",
"; c #3A3743",
": c #3B3743",
"> c #4E484A",
", c #4F484A",
"< c #4E494A",
"1 c #4F494A",
"2 c #4E484B",
"3 c #4F484B",
"4 c #4E494B",
"5 c #E0384C",
"6 c #E1394C",
"7 c #E0384D",
"8 c #E0394D",
"9 c #E1394D",
"0 c #965340",
"q c #965241",
"w c #A3744E",
"e c #A2754E",
"r c #A3754E",
"t c #A2744F",
"y c #A3744F",
"u c #A2754F",
"i c #A3754F",
"p c #8C967E",
"a c #8C977E",
"s c #8D977E",
"d c #8C977F",
"f c #8D977F",
"g c #D78A4A",
"h c #D68B4A",
"j c #D78B4A",
"k c #D68A4B",
"l c #D78A4B",
"z c #D68B4B",
"x c #D78B4B",
"c c #F0C470",
"v c #F0C570",
"b c #F0C471",
"n c #F1C471",
"m c #ABC2BD",
"M c None",
/* pixels */
"MMMMMMMMMMMMMMMM",
"MMMMMMXO MMMMMMM",
"MMMM@O789 +OMMMM",
"MMMX25vbc9,> MMM",
"MMo2>>6682>1, MM",
"M >4,>><,422,4oM",
"M+$2*,-><%2:1*XM",
"M@=3%>;>*=;%=&@M",
"M O::%-r;%:::&@M",
"MM weo@e=:---=@M",
"MXreuory-%%--;:o",
"M q0rrtu:*-&:%&X",
"MM#o@ iyi=**=:;@",
"MMM@nnvbhzxxX%=O",
"MMMohxxkgjjlx+ M",
"MMMMo.Xpsfdam#MM"
};
