/* XPM */
static char *result[] = {
/* columns rows colors chars-per-pixel */
"16 16 58 1 ",
"  c #141A1A",
". c #141B1A",
"X c #151B1A",
"o c #141A1B",
"O c #151A1B",
"+ c #141B1B",
"@ c #151B1B",
"# c #3A3642",
"$ c #3B3642",
"% c #3B3742",
"& c #3B3643",
"* c #3A3743",
"= c #3B3743",
"- c #4E484A",
"; c #4F484A",
": c #4E494A",
"> c #4F494A",
", c #4E484B",
"< c #4F484B",
"1 c #4E494B",
"2 c #4F494B",
"3 c #E0384C",
"4 c #E1384C",
"5 c #E0394C",
"6 c #E1394C",
"7 c #E1384D",
"8 c #E0394D",
"9 c #965240",
"0 c #975240",
"q c #965340",
"w c #975340",
"e c #975241",
"r c #965341",
"t c #975341",
"y c #A2744E",
"u c #A3744E",
"i c #A2754E",
"p c #A3754E",
"a c #A2744F",
"s c #A3744F",
"d c #A2754F",
"f c #A3754F",
"g c #8C977E",
"h c #8D977E",
"j c #8D967F",
"k c #8D977F",
"l c #D78A4A",
"z c #D68B4A",
"x c #D78B4A",
"c c #D78A4B",
"v c #D68B4B",
"b c #D78B4B",
"n c #F1C470",
"m c #F0C471",
"M c #F1C471",
"N c #F1C571",
"B c #ABC3BD",
"V c None",
/* pixels */
"VVVVVVVVVVVVVVVV",
"VVVVVVVVVV@.OVVV",
"VVVV ++O+.658 VV",
"VVV -,,<;4MnN5+V",
"VV@--:-,1;373oVV",
"VX;1-<:::,--:-.V",
"V+-:&-*1-%:$>-oV",
"VX-,&-=,;*:&-, V",
"VO,e%$&=&%#&01 V",
"VX;0X@ypda+.q-+V",
"+>-wu@pfpsXfr--+",
"+-+qiusrqpfu9+-o",
".2+@rdiipufrOv V",
"V+ nxctqt0wl+.oV",
"VV@mMMzbgklMoVVV",
"VVVoMN@jhhB VVVV"
};
