/* XPM */
static char *result[] = {
/* columns rows colors chars-per-pixel */
"16 16 50 1 ",
"  c #141A1A",
". c #151A1A",
"X c #141B1A",
"o c #151B1A",
"O c #141A1B",
"+ c #151A1B",
"@ c #141B1B",
"# c #151B1B",
"$ c #3A3642",
"% c #3B3642",
"& c #3A3742",
"* c #3B3742",
"= c #3A3643",
"- c #3B3643",
"; c #3A3743",
": c #3B3743",
"> c #4E484A",
", c #4F484A",
"< c #4E494A",
"1 c #4F494A",
"2 c #4E484B",
"3 c #4F484B",
"4 c #4E494B",
"5 c #4F494B",
"6 c #E1394C",
"7 c #E0394D",
"8 c #965240",
"9 c #965340",
"0 c #A2744E",
"q c #A3744E",
"w c #A2754E",
"e c #A3754E",
"r c #A2744F",
"t c #A3744F",
"y c #A3754F",
"u c #8D977E",
"i c #8D967F",
"p c #8C977F",
"a c #8D977F",
"s c #D78A4A",
"d c #D68B4A",
"f c #D78B4A",
"g c #D78A4B",
"h c #D68B4B",
"j c #D78B4B",
"k c #F0C470",
"l c #F1C470",
"z c #F1C571",
"x c #AAC3BC",
"c c None",
/* pixels */
"cccccccccccccccc",
"ccccccc#X#cccccc",
"ccccX@+766X@cccc",
"ccc#<<>,15>1Occc",
"ccX>2<<412,,<@cc",
"c+34<>>,,<1,53Xc",
"c+=>=2%>3=,->-Oc",
"c@&:&-::1&>=>%@c",
"c.:*%$:-e*&-=@@c",
"c@;%-=;:yO@yrXcc",
"+--:=%-:ww+y0t+c",
"@=:-%-%%etqt89@c",
"O%;*=;:e00#Xo cc",
"o%:#jsfhkzkl#ccc",
"c+Xfhsjgjfhd+ccc",
"cc xuapipX##cccc"
};
