/* XPM */
static char *result[] = {
/* columns rows colors chars-per-pixel */
"16 16 45 1 ",
"  c #141A1A",
". c #151A1A",
"X c #141B1A",
"o c #151B1A",
"O c #141A1B",
"+ c #151A1B",
"@ c #141B1B",
"# c #151B1B",
"$ c #3A3642",
"% c #3B3642",
"& c #3A3742",
"* c #3B3742",
"= c #3A3643",
"- c #3B3643",
"; c #3A3743",
": c #3B3743",
"> c #4E484A",
", c #4F484A",
"< c #4E494A",
"1 c #4F494A",
"2 c #4E484B",
"3 c #4F484B",
"4 c #4E494B",
"5 c #4F494B",
"6 c #E0394C",
"7 c #E1394C",
"8 c #E1384D",
"9 c #E0394D",
"0 c #8D977E",
"q c #8C967F",
"w c #8D967F",
"e c #8C977F",
"r c #8D977F",
"t c #D78A4A",
"y c #D68B4A",
"u c #D78B4A",
"i c #D78A4B",
"p c #D68B4B",
"a c #D78B4B",
"s c #F1C570",
"d c #F0C471",
"f c #F1C471",
"g c #F1C571",
"h c #ABC2BD",
"j c None",
/* pixels */
"jj@..#o oX .jjjj",
"j+6789,>45,2ojjj",
"jj+44<,3<,3,5Ojj",
"jo>43,<<>4>>>< j",
"j+3,-2%1>=4&><+j",
"j@4:=,=>3$,-=2Xj",
"jX<-:&**=:%;->@j",
"jX>%*=%%*;:-$>Xj",
"j+1;*%=:%=;--<oj",
"jjO=;:-*:=$-=+ j",
"jO::-==--:$$*.a@",
"j $-%--=-%*&%ay+",
"j o$-:%-$::-dgOj",
"j@sf%=--*-uusojj",
"j+fftypitppih@jj",
"jj@ 0ewqewerOjjj"
};
