/* XPM */
static char *Beast10[] = {
/* columns rows colors chars-per-pixel */
"16 16 32 1 ",
"  c None",
". c #141A1A",
"X c #151A1A",
"o c #141B1A",
"O c #151B1A",
"+ c #141A1B",
"@ c #151A1B",
"# c #141B1B",
"$ c #151B1B",
"% c #D04A34",
"& c #D14A34",
"* c #D04B34",
"= c #D14B34",
"- c #D04A35",
"; c #D14A35",
": c #D04B35",
"> c #D14B35",
", c #8E3E56",
"< c #8F3E56",
"1 c #8E3F56",
"2 c #8F3F56",
"3 c #8E3E57",
"4 c #8F3E57",
"5 c #8E3F57",
"6 c #8F3F57",
"7 c #EF904E",
"8 c #EE914E",
"9 c #EF914E",
"0 c #EE904F",
"q c #FEFFFE",
"w c #FEFFFF",
"e c white",
/* pixels */
"    +++   ++   +",
"   ++=++++=+++=+",
"   +=7====7=7=7+",
"  +==3=======+++",
" +==3ee=======+ ",
" +==eee========+",
" +==ee=========+",
" +========33+3=+",
" ++++====3==+33+",
" +===+===3==333+",
" +======333=33+ ",
" +=====33===33+ ",
"  +3333333==+33+",
" +333333+==++33+",
"++333333+++++33+",
"+3333+    +3333+"
};
