/* XPM */
static char *Beast06[] = {
/* columns rows colors chars-per-pixel */
"16 16 34 1 ",
"  c None",
". c #141A1A",
"X c #151A1A",
"o c #141B1A",
"O c #151B1A",
"+ c #141A1B",
"@ c #151A1B",
"# c #141B1B",
"$ c #151B1B",
"% c #D04A34",
"& c #D14A34",
"* c #D04B34",
"= c #D14B34",
"- c #D04A35",
"; c #D14A35",
": c #D04B35",
"> c #D14B35",
", c #8E3E56",
"< c #8F3E56",
"1 c #8E3F56",
"2 c #8F3F56",
"3 c #8E3E57",
"4 c #8F3E57",
"5 c #8E3F57",
"6 c #8F3F57",
"7 c #EE904E",
"8 c #EF914E",
"9 c #EE904F",
"0 c #EF904F",
"q c #FEFEFE",
"w c #FFFFFE",
"e c #FFFEFF",
"r c #FEFFFF",
"t c white",
/* pixels */
"                ",
"    +++   ++  ++",
"   ++*++++*+++*+",
"   +*9****9*9*9+",
"  +**4*******+++",
" +**4rr*******+ ",
" +**rrr********+",
" +**rr*********+",
" +********44+4*+",
" ++++***44**+44+",
" +***+44****444+",
" +***4******44+ ",
" +***44***4444+ ",
"  +44+**+4444+  ",
"  +44++++444+   ",
"   +444+444+    "
};
