/* XPM */
static char *Beast13[] = {
/* columns rows colors chars-per-pixel */
"16 16 29 1 ",
"  c None",
". c #141A1A",
"X c #151A1A",
"o c #141B1A",
"O c #151B1A",
"+ c #141A1B",
"@ c #151A1B",
"# c #141B1B",
"$ c #151B1B",
"% c #D04A34",
"& c #D14A34",
"* c #D04B34",
"= c #D14B34",
"- c #D04A35",
"; c #D14A35",
": c #D04B35",
"> c #D14B35",
", c #8E3E56",
"< c #8F3E56",
"1 c #8E3F56",
"2 c #8F3F56",
"3 c #8E3E57",
"4 c #8F3E57",
"5 c #8E3F57",
"6 c #8F3F57",
"7 c #EE914E",
"8 c #EE904F",
"9 c #EF904F",
"0 c #EF914F",
/* pixels */
"oo  oo          ",
"o=ooo=o  ooo ooo",
"o0=0=0=ooo=ooo=o",
"ooo=======0=0=0o",
" o===========ooo",
" o============o ",
" o============o ",
"o22===========2 ",
"o2===========22o",
"22============2o",
"22============22",
"22============22",
"o22===========22",
"o22222222====22o",
" o2222ooo====2oo",
"  o2222o=====o  "
};
