/* XPM */
static char *Beast12[] = {
/* columns rows colors chars-per-pixel */
"16 16 33 1 ",
"  c None",
". c #141A1A",
"X c #151A1A",
"o c #141B1A",
"O c #151B1A",
"+ c #141A1B",
"@ c #151A1B",
"# c #141B1B",
"$ c #151B1B",
"% c #D04A34",
"& c #D14A34",
"* c #D04B34",
"= c #D14B34",
"- c #D04A35",
"; c #D14A35",
": c #D04B35",
"> c #D14B35",
", c #8E3E56",
"< c #8F3E56",
"1 c #8E3F56",
"2 c #8F3F56",
"3 c #8E3E57",
"4 c #8F3E57",
"5 c #8E3F57",
"6 c #8F3F57",
"7 c #EE914F",
"8 c #EF914F",
"9 c #FFFEFE",
"0 c #FEFFFE",
"q c #FFFFFE",
"w c #FEFEFF",
"e c #FFFEFF",
"r c white",
/* pixels */
"                ",
"$$  $$   $$$ $$$",
"$=$$$=$$$$=$$$=$",
"$7=7=7====7=7=7$",
"$$$==========$$$",
" $==ee,==,ee==$ ",
" $==eee,,eee==$ ",
" $===ee==ee==,, ",
"$,,=========,==$",
"$==,==$$$$==,==$",
",==,=$====$=,==,",
"$==,,======,,,=,",
"$$==$,,,,,,====,",
"$$$$$,,,,,,,,==$",
"$$$,,,,,,,,$==$$",
"          $$$$$$"
};
