/* XPM */
static char *_b006e724e644f7cb2faf0a5e14628f4T6cI0POej0LJo84l[] = {
/* columns rows colors chars-per-pixel */
"64 46 241 2 ",
"   c None",
".  c black",
"X  c #000001",
"o  c #000101",
"O  c #010101",
"+  c #020000",
"@  c #000202",
"#  c #000302",
"$  c #020303",
"%  c gray1",
"&  c #070104",
"*  c #000706",
"=  c #040404",
"-  c #040505",
";  c gray2",
":  c #060606",
">  c #070706",
",  c #070707",
"<  c #000807",
"1  c #000F0F",
"2  c gray4",
"3  c #0E0A0E",
"4  c gray5",
"5  c #0E0E0E",
"6  c gray6",
"7  c #0E1010",
"8  c #001B18",
"9  c #101010",
"0  c #111110",
"q  c #111011",
"w  c #111111",
"e  c #131313",
"r  c #151515",
"t  c #161616",
"y  c #181818",
"u  c gray10",
"i  c #1A1B1B",
"p  c #1B1B1B",
"a  c gray11",
"s  c #1E1E1E",
"d  c gray12",
"f  c #380522",
"g  c #002925",
"h  c #003933",
"j  c #202020",
"k  c #202120",
"l  c #222222",
"z  c gray14",
"x  c #252525",
"c  c #262525",
"v  c #282828",
"b  c #2A2A2A",
"n  c #2C2C2C",
"m  c #2C2D2D",
"M  c #2D2D2D",
"N  c #323232",
"B  c #323233",
"V  c gray20",
"C  c #343434",
"Z  c #373737",
"A  c #373837",
"S  c gray22",
"D  c #383938",
"F  c #3A3A3A",
"G  c gray24",
"H  c #004F47",
"J  c #00534B",
"K  c #00554C",
"L  c #005C52",
"P  c #006D61",
"I  c #007A6E",
"U  c #017A6E",
"Y  c #007B6E",
"T  c #037B6F",
"R  c #414141",
"E  c gray26",
"W  c #434343",
"Q  c #444444",
"!  c #484848",
"~  c gray29",
"^  c #4B4B4B",
"/  c #4D4C4D",
"(  c gray31",
")  c gray33",
"_  c #555555",
"`  c #585859",
"'  c #5D5D5D",
"]  c gray37",
"[  c #5F5E5E",
"{  c #4B6C68",
"}  c gray39",
"|  c #656565",
" . c gray40",
".. c #676767",
"X. c #6A6A6A",
"o. c gray45",
"O. c gray47",
"+. c #797979",
"@. c #7B7B7B",
"#. c #7A7C7C",
"$. c gray49",
"%. c #AF106A",
"&. c #D3117F",
"*. c #FE0A7C",
"=. c #FF0A7C",
"-. c #FF0B7C",
";. c #FF0A7D",
":. c #FF0D7E",
">. c #FE107F",
",. c #FF107F",
"<. c #048477",
"1. c #FF1499",
"2. c #FF288C",
"3. c #FF298C",
"4. c #FF2E8E",
"5. c #FF3191",
"6. c #FF1EA0",
"7. c #B663A8",
"8. c #E346A8",
"9. c #FF41B9",
"0. c #FF46BB",
"q. c #FF63AC",
"w. c #E360BE",
"e. c #FF6EB1",
"r. c #FF6FB2",
"t. c #FF70D9",
"y. c #FF79DC",
"u. c #FF59EF",
"i. c #1B8D81",
"p. c #009485",
"a. c #009988",
"s. c #00A090",
"d. c #00A292",
"f. c #0BA595",
"g. c #818181",
"h. c gray51",
"j. c #838383",
"k. c #848484",
"l. c #858485",
"z. c #868786",
"x. c gray53",
"c. c #898989",
"v. c gray54",
"b. c #8E8E8E",
"n. c #909090",
"m. c gray57",
"M. c #939393",
"N. c #949595",
"B. c #959595",
"V. c gray59",
"C. c #989898",
"Z. c #9B9B9B",
"A. c #9D9D9D",
"S. c #A0A0A0",
"D. c #A1A0A0",
"F. c #A2A2A2",
"G. c #AAAAAA",
"H. c gray67",
"J. c #B1B1B1",
"K. c #B4B2B4",
"L. c #B4B4B4",
"P. c gray71",
"I. c #BBBBBB",
"U. c #BCBCBC",
"Y. c #FF9CCA",
"T. c #FFA5CF",
"R. c #FFBCDB",
"E. c #FF82E5",
"W. c #FF9DF2",
"Q. c #FFAAEE",
"!. c #FFBEF6",
"~. c #FFBFF6",
"^. c #FFB5F8",
"/. c #C1C1C1",
"(. c gray77",
"). c #C5C5C5",
"_. c #C6C6C6",
"`. c #C7C7C6",
"'. c #CBCBCB",
"]. c gray80",
"[. c #DAC5D7",
"{. c #D0D0D0",
"}. c #D2D2D2",
"|. c gray83",
" X c #DADBDA",
".X c gray86",
"XX c gainsboro",
"oX c #FFC0DD",
"OX c #EAD0E6",
"+X c #FFD4E8",
"@X c #FFD5E8",
"#X c #FFCAF8",
"$X c #FFD4F7",
"%X c #FFDEFA",
"&X c #E1E0E0",
"*X c #E1E1E1",
"=X c #E3E2E2",
"-X c gray89",
";X c #E4E4E4",
":X c #E5E4E4",
">X c #E7E7E7",
",X c gray91",
"<X c #EAEAEA",
"1X c gray92",
"2X c gray93",
"3X c #EFEFEF",
"4X c #FFE5F1",
"5X c #FFE8F3",
"6X c #FFEAF4",
"7X c #FFEBF4",
"8X c #FFEEF6",
"9X c #FFEFF7",
"0X c #FFE6FC",
"qX c #FFE7FC",
"wX c #F1F1F0",
"eX c #F1F1F1",
"rX c gray95",
"tX c #F3F2F2",
"yX c #F2F3F2",
"uX c #F3F3F3",
"iX c #F5F4F5",
"pX c gray96",
"aX c #FEF0F7",
"sX c #FFF3F8",
"dX c #FFF4FD",
"fX c #FFF7FE",
"gX c #F8F8F8",
"hX c #F9F9F9",
"jX c gray98",
"kX c #FBFBFB",
"lX c #FFF8FE",
"zX c gray99",
"xX c #FDFDFD",
"cX c #FFFCFF",
"vX c #FEFEFE",
"bX c #FFFEFE",
"nX c #FFFFFE",
"mX c #FEFEFF",
"MX c #FFFEFF",
"NX c #FEFFFF",
"BX c white",
/* pixels */
"                                                                                                                                ",
"                                                                                                                                ",
"                                                                                                                                ",
"                                                          % % %                                                                 ",
"                                                        ; BXBXBX;                                                               ",
"                                                      % hXBXBXBXBX;                                                             ",
"                                                      2 hXBXBXBXBXBX2                                                           ",
"                                                    % pXBXsXsXBXBXBXBX%                                                         ",
"                                                    w pX9X:.=.9XBXBXBXw                                                         ",
"                                                  % eXBX,.=.=.=.6XBXBXhX%                                                       ",
"                                                  % eXBX,.=.=.=.=.BXBXhXy s                                                     ",
"                                                  % eXBX4.2.2.2.2.BXBXBXBXeXk                                                   ",
"                                                  % eXBXBXBXBXBXBXBXBXBXBXBX3Xk ; x x                                           ",
"                                                  % eXBXBXBXBXBXBXBXBXBXBXBXBX>X^ BX}.M   M b                                   ",
"                                                  V eXBXBXBXBXBXBXBXBXBXBXBXBXBXBXBXBXU.( BXV.%                                 ",
"                                                F 3XBXBXBXBXBXBXBXBXBXBXBXBXBXBXBXBXBX'.O.BXV.%                                 ",
"                      R G                     R ,XBXBXBXBXBXBXBXBXBXBXBXBXBXBXBXBXBXBXBXBXBXV.s Z                               ",
"                    F BX`.R                 % .XBXBXBXBXBXBXBXBXBXBXBXBXBXBXBXBXBXBXBXBXBXBXL.D.D.^ ^ ^ ^ ^                     ",
"                    F BXBX/.Q               % .XBXBXBXBXBXBXBXBXBXBXBXBXBXBXBXBXBXBXBXBXBXBXBXBXBXBXBXBXBXBXo._                 ",
"                    F BXBXBXV.%             ` ,XBXBXBXBXBXBXBXBXBXBXBXBXBXBXBXBXBXBXBXBXBXBXBXBXBXBXBXBXR.T.aXBXy               ",
"                    Z BXBXBXV.%           % }.BXBXBXBXBXBXBXBXBXBXBXBXBXBXBXBXBXBXBXBXBXBXBXBXBXBXBXoXY.5.=.+XBXy               ",
"                    A BXBXBXV.%           % }.BXBXBXBXBXm.b.b.BXBXBXBXBXBXBXBXBXBXBXBXBXBXBXBXBXBXBXq.=.=.=.+XBXy               ",
"                    F BXBXBXV.%           % }.BXBXBXBXc.U U % k.BXBXBXBXBXBXBXBXBXBXBXBXBXBXBXBXBXBXq.=.=.=.+XV.y               ",
"                    F BXBXBXV.%           % }.BXBXBXh.<.U U k.k.O.BXBXBXBXBXBXBXBXBXBXBXBXBXBXBXBXBXq.=.=.e.6Xx                 ",
"                    b V.BXBXV.%           % }.BXBXBX5 P % % BXBX% BXBXBXBXBXBXBXBXBXBXBXBXBXBXBXBXBXq.=.e.5Xc.s                 ",
"                      R BXBX|.}           % }.BXBXBX5 % p.% ....% BXBXBXBXBXBXBXBXBXBXBXBXBXBXBXBXBXoXY.4XBXM                   ",
"                      M m.BXBXk.      % % % }.BXBX!.3 % L s.% % D.BXBXBXBXBXBXBXBX-X' ' m.BXBXBXBXBXBXBXBXh.                    ",
"                        ( BXBXk.    #.G.G.G...>X!.0.%.& % J % G.BXBXBXu.BXBXBXBX>X..G.$.y m.BXBXBXBXBXBXh.                      ",
"                        ( BXBXk.% O.>XBXBXBXM .XW.6.1.7.K.L.L.BXBX( BX^.BXBXBX,XR M BXU.h i.V.BXBXBXBXk.                        ",
"                        ( BXBX-XU.-XBXBXBXBX`._ OXy.t.%XBXBXBXBXBXI.R ^ BXBXBX>X8 f.R V H s.X.BXBXBXBX(                         ",
"                          h.BXBXBXBXBXBXBXBXBX].hX0X0XBXBXBXBXBXBXBX`.`.BXBXBX>X* K a.% H s.X.BXBXBXBX(                         ",
"                          ' BXBXBXBXBXBXBXBXBXBXBXBXBXBXBXBXBXBXBXBXBXBXBXBXBX>X% < g % 1 { -XBXBXBXBX(                         ",
"                            k.BXBXBXBXBXBXBXBXBXBXBXBXBXBXBXBXBXBXBXBXBXBXBXBXhXL.% % f &.8.#XBXBXBXO.                          ",
"                            s x Z.BXBXBXBXBXBXBXBXBXBXBXBXBXBXBXBXBXBXBXBXBXBXBXhX.X[.w.1.9.!.BXBXBX'                           ",
"                              % k.BXBXBXBXBXBXBXBXBXBXBXBXBXBXBXBXBXBXBXBXBXBXBXBXBXBX$XE.Q.fXBXBX$.                            ",
"                                k.BXBXBXBXBXBXBXBXBXBXBXBXBXBXBXBXBXBXBXBXBXBXBXBXBXBXBXfXlXBXBXk.                              ",
"                                k.BXBXBXBXBXBXBXBXBXBXBXBXBXBXBXBXBXy BXBXBXBXBXBXBXBXBXBXBXA.t w                               ",
"                                7 Z.BXBXBXBXBXBXBXBXBXBXBXBXBXBXBXBX% w w w w w w w w w w w w                                   ",
"                                % V.BXBXBXBXBXBXBXBXBXBXBXBXBXBX5 5 eXeXeX>X%                                                   ",
"                                % V.BXBXBXBXBXBXx 2 eXBXBXBXBXBXpXeX5 BXBXeX%                                                   ",
"                                % V.BXBXBXBXBXBXhXhXt pXBXBXBXBXBXBX% BXBXBX>X%                                                 ",
"                                  ; ; L.BXBXV XXk ,X5 pXBXBX; BX; BX% hX5 eX; %                                                 ",
"                                    % % % % % % % %   % % % % % % %   % % % %                                                   ",
"                                                                                                                                ",
"                                                                                                                                ",
"                                                                                                                                "
};
