/* XPM */
static const char *result[] = {
/* columns rows colors chars-per-pixel */
"32 32 16 1 ",
"  c #884F3A",
". c #925A3E",
"X c #9C6246",
"o c #945C40",
"O c #7B7878",
"+ c #BBB8B8",
"@ c #ADABAA",
"# c #733C2E",
"$ c #9C9999",
"% c #975E42",
"& c #925840",
"* c #7E4634",
"= c #B5B4B7",
"- c gray89",
"; c #C0C0C0",
": c white",
/* pixels */
" ...XXX......XX.oo......XXOOOOOO",
" XXXXXXXXXXXXXXXXXXXXXXXXXOO+++O",
" ....XXXXXXXXXXXXXXXXXXX..O@@@@@",
"  #######  ###############O$$$$$",
".XXXXXXXXXX..XXXX.........OOOOOO",
"XXXXX.XXXXXXXXXXXXXXXXXXX.O+++++",
"XX..X.......XXXXXXXXXXXXXXO@@@@@",
"#### ##########      #####O$$$$$",
"......XXXXXXX#.....XXXXXXXOOOOOO",
"XXXXXXXXXXXX.#..XXXXXXXXXXO+++++",
"XXXXXXXXXX...#.XXXXXXXXXX.O@@@@@",
"##########################O$$$$$",
".X...XX#.XXXXXXXXXXXX...#.OOOOOO",
"XXXXXXX#..XXXXXXXXXXXX..#.O+++++",
".......#....XXXX........ XO@@@@@",
" ##########     #####    #O$$$$$",
"%XXXXXXX....XXX&......XXXXOOOOOO",
".XXXXXXXXXXXXX. .XXXXXXXXXO+++++",
"..XX....XXX....#XXXXXXXXXXO@@@@@",
"##########################O$$$$$",
"X........#...........XXXX.OOOOOO",
"XXXXXXXX.#.XXXXXXXXXXXXXXXO+++++",
"XX.......#XXXXXXXXXXXXXXXXO@@@@@",
"#####  ######  #########**O$$$$$",
"X...XXXXXXXXXXX.#...XXXXXXOOOOOO",
"XXXXXXXXXXXXXXX.#..XXXXXXXO@@@@@",
"X...XXXXXXXX....#.XXXXXXXXOO$$$O",
"##########################OOOOOO",
"=-------------------------------",
"=;;;;;;;;;;;;;;;;;;;;;;;;;;;;;;-",
"==;;;;;;;;;;;;;;;;;;;;;;;;;;;;;;",
"=======;===========;;;;;;;;;;;;;"
};
