/* XPM */
static char *_c9dbb752a45400eb93a1725125dac49a6BqqnSQOveCuflr[] = {
/* columns rows colors chars-per-pixel */
"32 32 24 1 ",
"  c None",
". c #733C3A",
"X c #723D3A",
"o c #733D3A",
"O c #723C3B",
"+ c #733C3B",
"@ c #723D3B",
"# c #733D3B",
"$ c #B8704E",
"% c #B9704E",
"& c #B8714E",
"* c #B9714E",
"= c #B8704F",
"- c #B9704F",
"; c #B8714F",
": c #B9714F",
"> c #EAD4AA",
", c #EBD4AA",
"< c #EAD5AA",
"1 c #EBD5AA",
"2 c #EAD4AB",
"3 c #EBD4AB",
"4 c #EAD5AB",
"5 c #EBD5AB",
/* pixels */
"                                ",
"                                ",
"                                ",
"              :::               ",
"            ::333::             ",
"          ::3333333::           ",
"         :33333333333:          ",
"        :3333333333333:         ",
"        :3333333333333:         ",
"        :3333333333333:         ",
"       :33:333333333:33:        ",
"       :33:333333333:33:        ",
"       :3:33333333333:3:        ",
"       :333+++333+++333:        ",
"       :33++++333++++33:        ",
"       :33++++3+3++++33:        ",
"        :3+++33+33+++3:         ",
"       :333333+++333333:        ",
"        :33333+3+33333:         ",
"         :::3333333:::          ",
"         :3:3333333:3:          ",
"         :3:3333333:3:          ",
"         :33::333::33:          ",
"         :3:33:::33:3:          ",
"          :33:333:33:           ",
"           :3333333:            ",
"           :3333333:            ",
"            :33333:             ",
"             :::::              ",
"                                ",
"                                ",
"                                "
};
