/* XPM */
static const char *result[] = {
/* columns rows colors chars-per-pixel */
"32 32 16 1 ",
"  c #7B7878",
". c #925A3E",
"X c #9C6246",
"o c #945C40",
"O c #BBB8B8",
"+ c #ADABAA",
"@ c #9C9999",
"# c #733C2E",
"$ c #884F3A",
"% c #8C8989",
"& c #925840",
"* c #7E4634",
"= c #B5B4B7",
"- c gray89",
"; c #C0C0C0",
": c white",
/* pixels */
"        .....XX.oo......XXXXX...",
"   OOO  XXXXXXXXXXXXXXXXXXXXXXXX",
"  +++++ XXXXXXXXXXXXXXXX.....XXX",
"  @@@@@ #$$####################$",
"        XXX..XXXX..........#....",
"%%OOOOO XXXXXXXXXXXXXXXXX..#XXXX",
"%%+++++ ....XXXXXXXXXXXXXX.$XXXX",
"  @@@@@ #######$$$$$$#####$$$$$$",
"        XXXXX#.....XXXXXXXXXXXXX",
"  OOOOO XXXX.#..XXXXXXXXXXXXXXXX",
"  +++++ XX...#.XXXXXXXXXX...X..X",
"  @@@@@ ########################",
"        .XXXXXXXXXXXX...#....XX.",
"  OOOOO ..XXXXXXXXXXXX..#.XXXXXX",
"  +++++ ....XXXX........$XXXX...",
"  @@@@@ ###$$$$$#####$$$$######$",
"        ....XXX&......XXXXXXXXX$",
"  OOOOO XXXXXX.$.XXXXXXXXXXXXX.#",
"  +++++ XXX....#XXXXXXXXXX.....#",
"  @@@@@ ########################",
"        .#...........XXXX..XXXXX",
"  OOOOO .#.XXXXXXXXXXXXXXXXXXXXX",
"  +++++ .#XXXXXXXXXXXXXXXXXXXXXX",
"  @@@@@ #####$$#########****####",
"        XXXXXXX.#...XXXXXXXXXXXX",
"  +++++ XXXXXXX.#..XXXXXXXXXXXXX",
"   @@@  XXXX....#.XXXXXXXXXXXX..",
"        ##################$$$$##",
"=-------------------------------",
"=;;;;;;;;;;;;;;;;;;;;;;;;;;;;;;-",
"==;;;;;;;;;;;;;;;;;;;;;;;;;;;;;;",
"=======;===========;;;;;;;;;;;;;"
};
