/* XPM */
static const char *result[] = {
/* columns rows colors chars-per-pixel */
"32 32 9 1 ",
"  c #884F3A",
". c #925A3E",
"X c #9C6246",
"o c #945C40",
"O c #733C2E",
"+ c #975E42",
"@ c #925840",
"# c #7E4634",
"$ c white",
/* pixels */
" ...XXX......XX.oo......XXXXX...",
" XXXXXXXXXXXXXXXXXXXXXXXXXXXXXXX",
" ....XXXXXXXXXXXXXXXXXXX.....XXX",
"  OOOOOOO  OOOOOOOOOOOOOOOOOOOO ",
".XXXXXXXXXX..XXXX..........O....",
"XXXXX.XXXXXXXXXXXXXXXXXXX..OXXXX",
"XX..X.......XXXXXXXXXXXXXX. XXXX",
"OOOO OOOOOOOOOO      OOOOO      ",
"......XXXXXXXO.....XXXXXXXXXXXXX",
"XXXXXXXXXXXX.O..XXXXXXXXXXXXXXXX",
"XXXXXXXXXX...O.XXXXXXXXXX...X..X",
"OOOOOOOOOOOOOOOOOOOOOOOOOOOOOOOO",
".X...XXO.XXXXXXXXXXXX...O....XX.",
"XXXXXXXO..XXXXXXXXXXXX..O.XXXXXX",
".......O....XXXX........ XXXX...",
" OOOOOOOOOO     OOOOO    OOOOOO ",
"+XXXXXXX....XXX@......XXXXXXXXX ",
".XXXXXXXXXXXXX. .XXXXXXXXXXXXX.O",
"..XX....XXX....OXXXXXXXXXX.....O",
"OOOOOOOOOOOOOOOOOOOOOOOOOOOOOOOO",
"X........O...........XXXX..XXXXX",
"XXXXXXXX.O.XXXXXXXXXXXXXXXXXXXXX",
"XX.......OXXXXXXXXXXXXXXXXXXXXXX",
"OOOOO  OOOOOO  OOOOOOOOO####OOOO",
"X...XXXXXXXXXXX.O...XXXXXXXXXXXX",
"XXXXXXXXXXXXXXX.O..XXXXXXXXXXXXX",
"X...XXXXXXXX....O.XXXXXXXXXXXX..",
"OOOOOOOOOOOOOOOOOOOOOOOOOO    OO",
"XXX...O.........XXXXXXO....XXXXX",
"XXXXX.O..XXXXXXXXXXXX.O..XXXXXXX",
"XXXXXXO.XXXXXXXXX.....OXXXXXXXXX",
" OOOOOOOOOOOOOOOOOOOOOOOOOOOOOOO"
};
