/* XPM */
static char *f6af84a59dcc4dc5f5feb5d8e9ec4dadl5qdB4l4MY0PucXT[] = {
/* columns rows colors chars-per-pixel */
"32 32 35 1 ",
"  c None",
". c #252A42",
"X c #252B42",
"o c #242B43",
"O c #252B43",
"+ c #66386C",
"@ c #67386C",
"# c #67396C",
"$ c #67386D",
"% c #265C42",
"& c #275C42",
"* c #275D42",
"= c #265C43",
"- c #3A4466",
"; c #3A4566",
": c #3A4467",
"> c #3B4467",
", c #3A4567",
"< c #F67622",
"1 c #F77622",
"2 c #F77722",
"3 c #F67623",
"4 c #F77623",
"5 c #3E8848",
"6 c #3E8948",
"7 c #3F8948",
"8 c #3E8949",
"9 c #5A6886",
"0 c #5B6886",
"q c #5A6986",
"w c #5B6986",
"e c #5B6987",
"r c #8B9BB4",
"t c #8B9AB5",
"y c #8B9BB5",
/* pixels */
"                                ",
"                                ",
"                                ",
"                                ",
"                                ",
"                                ",
"                                ",
"                                ",
"               eeeeee           ",
"              eeeeeeee          ",
"              eeeeeeee          ",
"              :eeeeee:ee        ",
"              ::::::::ee        ",
"              ::::::::ee        ",
"              O:44::::ee        ",
"              OO44OO44          ",
"               O444444          ",
"              %%%44446          ",
"              %%666666          ",
"               %%66666          ",
"             @@%%66666          ",
"             @@@O44:            ",
"              @@O:::r           ",
"               @rrrrr           ",
"                                ",
"                                ",
"                                ",
"                                ",
"                                ",
"                                ",
"                                ",
"                                "
};
