/* XPM */
static const char *result[] = {
/* columns rows colors chars-per-pixel */
"32 32 55 1 ",
"  c #969492",
". c #9D9B9A",
"X c #9D9B99",
"o c #A2A19F",
"O c #A2A1A0",
"+ c #A4A3A2",
"@ c #A4A3A1",
"# c #A09E9C",
"$ c #A09E9B",
"% c #9A9895",
"& c #9A9896",
"* c #A09E9D",
"= c #9A9795",
"- c #969391",
"; c #A09D9A",
": c #A2A09D",
"> c #9D9B98",
", c #A2A09B",
"< c #A7A4A0",
"1 c #A5A29D",
"2 c #A09D98",
"3 c #9D9A93",
"4 c #9D9A94",
"5 c #96938D",
"6 c #B5B1AA",
"7 c #BAB6B0",
"8 c #BCB8B2",
"9 c #BEBAB4",
"0 c #B7B3AB",
"q c #B9B5AD",
"w c #B4B0A8",
"e c #BCB8B1",
"r c #BAB6AF",
"t c #B8B4AD",
"y c #B7B4AE",
"u c #BFBBB6",
"i c #BBB7B2",
"p c #C0BCB6",
"a c #C5C1BB",
"s c #C3BFB9",
"d c #C1BDB7",
"f c #C1BDB6",
"g c #C2BEB7",
"h c #C6C2BC",
"j c #C2BEB8",
"k c #C4C0BA",
"l c #C7C3BD",
"z c #925A3E",
"x c #9C6246",
"c c #733C2E",
"v c #884F3A",
"b c #975E42",
"n c #925840",
"m c #7E4634",
"M c white",
/* pixels */
"   ..XoO+@@@@@@@oooo#$#XX%XX&&%%",
"  &.*##=-------;;;;::>,,<122,345",
"677766777888890qw00err6tttrwwyui",
"pp77778aaasdfgaahhhasjj7jjjj7777",
"pppkhhhhaaalllassjjjkkhkkppplllp",
"ppaaaaallllllllllllllllllllppppp",
"llllllllllllllllllllllllllllllll",
"llllllllllllllllllllllllllllllll",
"zzzzzzxxxxxxxczzzzzxxxxxxxxxxxxx",
"xxxxxxxxxxxxzczzxxxxxxxxxxxxxxxx",
"xxxxxxxxxxzzzczxxxxxxxxxxzzzxzzx",
"cccccccccccccccccccccccccccccccc",
"zxzzzxxczxxxxxxxxxxxxzzzczzzzxxz",
"xxxxxxxczzxxxxxxxxxxxxzzczxxxxxx",
"zzzzzzzczzzzxxxxzzzzzzzzvxxxxzzz",
"vccccccccccvvvvvcccccvvvvccccccv",
"bxxxxxxxzzzzxxxnzzzzzzxxxxxxxxxv",
"zxxxxxxxxxxxxxzvzxxxxxxxxxxxxxzc",
"zzxxzzzzxxxzzzzcxxxxxxxxxxzzzzzc",
"cccccccccccccccccccccccccccccccc",
"xzzzzzzzzczzzzzzzzzzzxxxxzzxxxxx",
"xxxxxxxxzczxxxxxxxxxxxxxxxxxxxxx",
"xxzzzzzzzcxxxxxxxxxxxxxxxxxxxxxx",
"cccccvvccccccvvcccccccccmmmmcccc",
"xzzzxxxxxxxxxxxzczzzxxxxxxxxxxxx",
"xxxxxxxxxxxxxxxzczzxxxxxxxxxxxxx",
"xzzzxxxxxxxxzzzzczxxxxxxxxxxxxzz",
"ccccccccccccccccccccccccccvvvvcc",
"xxxzzzczzzzzzzzzxxxxxxczzzzxxxxx",
"xxxxxzczzxxxxxxxxxxxxzczzxxxxxxx",
"xxxxxxczxxxxxxxxxzzzzzcxxxxxxxxx",
"vccccccccccccccccccccccccccccccc"
};
