/* XPM */
static char *_7db9f78ae7e4bccafb5647189e1435cbLoWD0av04iDE6fR[] = {
/* columns rows colors chars-per-pixel */
"16 14 40 1 ",
"  c None",
". c black",
"X c #141A1A",
"o c #151A1A",
"O c #141B1A",
"+ c #151B1A",
"@ c #141A1B",
"# c #151A1B",
"$ c #141B1B",
"% c #151B1B",
"& c #8E3E56",
"* c #8F3E56",
"= c #8E3F56",
"- c #8F3F56",
"; c #8E3E57",
": c #8F3E57",
"> c #8E3F57",
", c #8F3F57",
"< c #E0384C",
"1 c #E1384C",
"2 c #E0394C",
"3 c #E1394C",
"4 c #E0384D",
"5 c #E0394D",
"6 c #E1394D",
"7 c #FEAC5C",
"8 c #FFAC5C",
"9 c #FEAD5C",
"0 c #FFAD5C",
"q c #FEAC5D",
"w c #FFAC5D",
"e c #FEAD5D",
"r c #FFAD5D",
"t c #FFE08C",
"y c #FEE18C",
"u c #FFE18C",
"i c #FEE08D",
"p c #FFE08D",
"a c #FEE18D",
"s c #FFE18D",
/* pixels */
"$$$$$$$$.$$$$$$$",
"$2************2$",
"$22q*q2222q*q22$",
"$$$q*q****q*q$$$",
"$uuuuuuuuuuuuuu$",
"$u$***********u$",
"$u$$**********u$",
"$u$$$*********u$",
"$uuuuuuuuuuuuuu$",
"$uqqqqq$$qqqqqq$",
"$$****qqqq****$$",
" $222*********$ ",
" $22222222222*$ ",
" $$$$$$$$$$$$$$ "
};
